<?xml version="1.0" encoding="UTF-8" standalone="no"?>
<svg
   xmlns:dc="http://purl.org/dc/elements/1.1/"
   xmlns:cc="http://creativecommons.org/ns#"
   xmlns:rdf="http://www.w3.org/1999/02/22-rdf-syntax-ns#"
   xmlns:svg="http://www.w3.org/2000/svg"
   xmlns="http://www.w3.org/2000/svg"
   xmlns:sodipodi="http://sodipodi.sourceforge.net/DTD/sodipodi-0.dtd"
   xmlns:inkscape="http://www.inkscape.org/namespaces/inkscape"
   width="32"
   height="32"
   fill="currentColor"
   class="bi bi-joystick"
   viewBox="0 0 16 16"
   version="1.1"
   id="svg3939"
   sodipodi:docname="favicon.svg"
   inkscape:version="0.92.4 (5da689c313, 2019-01-14)">
  <metadata
     id="metadata3945">
    <rdf:RDF>
      <cc:Work
         rdf:about="">
        <dc:format>image/svg+xml</dc:format>
        <dc:type
           rdf:resource="http://purl.org/dc/dcmitype/StillImage" />
        <dc:title />
      </cc:Work>
    </rdf:RDF>
  </metadata>
  <defs
     id="defs3943" />
  <sodipodi:namedview
     pagecolor="#ffffff"
     bordercolor="#666666"
     borderopacity="1"
     objecttolerance="10"
     gridtolerance="10"
     guidetolerance="10"
     inkscape:pageopacity="0"
     inkscape:pageshadow="2"
     inkscape:window-width="1920"
     inkscape:window-height="1015"
     id="namedview3941"
     showgrid="false"
     inkscape:zoom="7.375"
     inkscape:cx="-8.0677966"
     inkscape:cy="-0.27118644"
     inkscape:window-x="1280"
     inkscape:window-y="164"
     inkscape:window-maximized="1"
     inkscape:current-layer="svg3939" />
  <path
     fill-opacity="1.0"
     fill-rule="evenodd"
     d="M15.817.113A.5.5 0 0 1 16 .5v14a.5.5 0 0 1-.402.49l-5 1a.502.502 0 0 1-.196 0L5.5 15.01l-4.902.98A.5.5 0 0 1 0 15.5v-14a.5.5 0 0 1 .402-.49l5-1a.5.5 0 0 1 .196 0L10.5.99l4.902-.98a.5.5 0 0 1 .415.103zM10 1.91l-4-.8v12.98l4 .8V1.91zm1 12.98l4-.8V1.11l-4 .8v12.98zm-6-.8V1.11l-4 .8v12.98l4-.8z"
     id="path3937"
     style="fill:#000000;opacity:0.553;fill-opacity:0.94495416" />
  <path
     d="M 9.5000096,3.6721279 A 1.4999971,1.5225124 0 0 1 8.3750105,5.1466811 V 9.019191 c 0.6472503,0.063187 1.1249991,0.2869935 1.1249991,0.5526727 0,0.3151565 -0.6712493,0.5709363 -1.4999979,0.5709363 -0.8287484,0 -1.4999967,-0.2557798 -1.4999967,-0.5709363 0,-0.2664405 0.4777497,-0.4894886 1.1249978,-0.5526727 V 5.1466811 A 1.4999971,1.5225124 0 1 1 9.5000096,3.6721279 Z"
     id="path3877"
     inkscape:connector-curvature="0"
     style="fill:#9a031e;fill-opacity:1;stroke-width:0.75560635" />
  <path
     d="m 2.0000238,9.5071564 v 1.3070686 a 0.74999853,0.76125615 0 0 0 0.4147494,0.680565 l 4.9147394,2.494636 a 1.4999971,1.5225124 0 0 0 1.3409984,0 L 13.58525,11.49479 A 0.74999853,0.76125615 0 0 0 14,10.814225 V 9.5071564 C 14,9.4310364 13.955,9.3625165 13.886,9.3320685 L 9.1250096,7.2614508 v 0.7559267 l 3.9202414,1.6580163 a 0.09374982,0.09515703 0 0 1 7.33e-4,0.1750844 L 8.5909933,11.788635 a 1.4999971,1.5225124 0 0 1 -1.1819979,0 L 2.9540219,9.8504782 A 0.09374982,0.09515703 0 0 1 2.9547752,9.6753938 L 6.8750141,8.0173775 6.8652409,7.2652574 2.114,9.3320685 A 0.18749962,0.19031405 0 0 0 2,9.5071564 Z"
     id="path3879"
     inkscape:connector-curvature="0"
     style="fill:#9a031e;fill-opacity:1;stroke-width:0.75560635" />
</svg>
